#!OML:ASF I:\golf\golf\golf 2\Subject 1\2002-09-07\Subject1.ASF
:FULLY-SPECIFIED
:DEGREES
58
root 0.324262 18.1959 -6.88478 11.4355 -8.26872 -7.61668
lowerback -9.21424 -0.461604 -0.619157
upperback -2.21374 -0.724226 4.5949
thorax 2.93467 -0.378404 5.05644
lowerneck -16.9582 1.59591 1.91983
upperneck 39.1979 4.5258 -6.87455
head 17.5297 1.103 -2.63006
rclavicle -6.37353e-015 9.93923e-016
rhumerus -32.7258 -7.8622 -79.5818
rradius 27.6775
rwrist -7.76306
rhand -19.8707 7.00982
rfingers 7.12502
rthumb 6.46469 -22.8715
lclavicle -6.37353e-015 9.93923e-016
lhumerus -30.7669 5.97188 85.6868
lradius 26.1238
lwrist 5.34251
lhand -12.4426 35.2703
lfingers 7.12502
lthumb 13.6304 64.804
rfemur -12.4505 4.17895 25.2229
rtibia 20.4248
rfoot -11.1892 -6.16292
rtoes -0.622242
lfemur -11.6047 4.05746 -14.3638
ltibia 23.8815
lfoot -16.0206 9.26903
ltoes -6.51047
59
root 0.333999 18.1986 -6.88913 11.3896 -8.25666 -7.60482
lowerback -9.08269 -0.457739 -0.550773
upperback -2.21705 -0.721259 4.55379
thorax 2.85671 -0.37524 4.97367
lowerneck -16.7398 1.80961 2.17872
upperneck 39.3675 4.86038 -7.07329
head 17.6124 1.2531 -2.71259
rclavicle -3.17683e-014 1.86858e-014
rhumerus -32.8011 -7.99242 -79.5887
rradius 27.6378
rwrist -7.78999
rhand -19.6658 7.53236
rfingers 7.12502
rthumb 6.66241 -22.3428
lclavicle -3.17683e-014 1.86858e-014
lhumerus -30.7698 5.85755 85.6491
lradius 26.2712
lwrist 5.50088
lhand -12.4405 35.5813
lfingers 7.12502
lthumb 13.6325 65.1149
rfemur -12.4011 4.08726 25.1862
rtibia 20.3907
rfoot -11.2008 -6.09327
rtoes -0.190457
lfemur -11.6109 4.072 -14.4034
ltibia 23.9449
lfoot -16.1063 9.19526
ltoes -6.34608
60
root 0.341062 18.1983 -6.89379 11.3727 -8.25003 -7.58686
lowerback -9.04321 -0.467979 -0.544308
upperback -2.16761 -0.735819 4.5367
thorax 2.88726 -0.38343 4.95029
lowerneck -16.7359 2.02204 2.32984
upperneck 39.5801 5.19376 -7.16363
head 17.7711 1.39687 -2.72819
rclavicle -6.99474e-015 -1.13307e-014
rhumerus -32.7709 -8.04474 -79.6001
rradius 27.6155
rwrist -7.91365
rhand -19.2479 8.12119
rfingers 7.12502
rthumb 7.06584 -21.7409
lclavicle -6.99474e-015 -1.13307e-014
lhumerus -30.8225 5.64714 85.686
lradius 26.6699
lwrist 5.78496
lhand -12.4076 36.1697
lfingers 7.12502
lthumb 13.6642 65.7012
rfemur -12.3928 3.94279 25.1502
rtibia 20.3558
rfoot -11.1764 -5.92977
rtoes -0.52007
lfemur -11.6254 4.20976 -14.4351
ltibia 23.9991
lfoot -16.1993 8.93314
ltoes -5.79216
61
root 0.347618 18.1963 -6.89802 11.3783 -8.32552 -7.62476
lowerback -9.04944 -0.445779 -0.517979
upperback -2.09843 -0.711869 4.55303
thorax 2.9604 -0.373194 4.95564
lowerneck -16.755 2.23502 2.34531
upperneck 39.8233 5.51785 -7.10095
head 17.9428 1.53617 -2.64975
rclavicle 5.44608e-014 -4.92986e-014
rhumerus -32.7348 -7.95475 -79.6196
rradius 27.6317
rwrist -8.14916
rhand -18.7903 8.84607
rfingers 7.12502
rthumb 7.50756 -21.0007
lclavicle 5.44608e-014 -4.92986e-014
lhumerus -30.6691 5.67062 85.7005
lradius 26.6843
lwrist 5.7956
lhand -12.4469 34.7192
lfingers 7.12502
lthumb 13.6263 64.2532
rfemur -12.4102 3.98007 25.1546
rtibia 20.3541
rfoot -11.2002 -5.88311
rtoes -0.222589
lfemur -11.6498 4.54031 -14.4187
ltibia 24.0239
lfoot -16.222 8.57996
ltoes -5.25498
62
root 0.354971 18.1944 -6.903 11.3897 -8.36707 -7.76885
lowerback -9.16779 -0.414219 -0.50161
upperback -1.98012 -0.682687 4.67458
thorax 3.1479 -0.363032 5.07963
lowerneck -16.6499 2.39256 2.38761
upperneck 39.9572 5.81165 -7.21447
head 18.0277 1.64686 -2.6595
rclavicle 1.67103e-014 5.64548e-014
rhumerus -32.6626 -7.77351 -79.545
rradius 27.6478
rwrist -8.4254
rhand -18.5817 9.42685
rfingers 7.12502
rthumb 7.70892 -20.4126
lclavicle 1.67103e-014 5.64548e-014
lhumerus -30.4946 5.65199 85.8772
lradius 26.7668
lwrist 5.89381
lhand -12.602 34.7512
lfingers 7.12502
lthumb 13.4768 64.2952
rfemur -12.4225 4.1578 25.2758
rtibia 20.3704
rfoot -11.1934 -6.03119
rtoes 0.0324252
lfemur -11.6732 4.66237 -14.2693
ltibia 24.0384
lfoot -16.1919 8.40816
ltoes -4.78949
63
root 0.363952 18.1937 -6.9101 11.3835 -8.32323 -7.83102
lowerback -9.03128 -0.385836 -0.437786
upperback -2.00312 -0.646896 4.67176
thorax 3.04414 -0.342919 5.04357
lowerneck -16.4556 2.49048 2.56939
upperneck 40.0874 5.97902 -7.37359
head 18.0838 1.72367 -2.74193
rclavicle 9.77772e-015 -3.97569e-014
rhumerus -32.7868 -7.77516 -79.5324
rradius 27.6253
rwrist -8.5386
rhand -18.3298 10.0476
rfingers 7.12502
rthumb 7.95203 -19.7828
lclavicle 9.77772e-015 -3.97569e-014
lhumerus -30.5678 5.57649 85.8549
lradius 26.9535
lwrist 5.83769
lhand -12.4222 35.0837
lfingers 7.12502
lthumb 13.6502 64.6161
rfemur -12.4413 4.23163 25.3176
rtibia 20.3738
rfoot -11.124 -6.1241
rtoes 0.274059
lfemur -11.7044 4.50705 -14.2045
ltibia 24.0563
lfoot -16.1128 8.43375
ltoes -4.65133
64
root 0.375198 18.1948 -6.91818 11.3337 -8.24167 -7.79332
lowerback -8.89323 -0.375094 -0.444947
upperback -1.97601 -0.628499 4.6395
thorax 2.99367 -0.333238 5.01515
lowerneck -16.3327 2.54977 2.60217
upperneck 40.2059 6.09113 -7.41677
head 18.1353 1.76969 -2.75249
rclavicle 5.07522e-014 1.82882e-014
rhumerus -32.7976 -7.794 -79.5239
rradius 27.5707
rwrist -8.61128
rhand -17.8207 10.789
rfingers 7.12502
rthumb 8.4434 -19.0222
lclavicle 5.07522e-014 1.82882e-014
lhumerus -30.5116 5.71161 85.7637
lradius 27.0707
lwrist 5.38056
lhand -11.9141 35.4961
lfingers 7.12502
lthumb 14.1398 64.995
rfemur -12.4284 4.16037 25.2539
rtibia 20.3714
rfoot -11.0531 -6.06702
rtoes 0.670037
lfemur -11.7314 4.30478 -14.2647
ltibia 24.0736
lfoot -16.0682 8.56665
ltoes -5.00215
65
root 0.388468 18.1956 -6.92515 11.2925 -8.1588 -7.72237
lowerback -9.12084 -0.360688 -0.546304
upperback -1.72735 -0.614209 4.66257
thorax 3.37898 -0.335377 5.10225
lowerneck -16.3138 2.60588 2.55238
upperneck 40.1537 6.21671 -7.46311
head 18.1124 1.80874 -2.73723
rclavicle -6.5102e-015 1.90833e-014
rhumerus -32.5 -7.83685 -79.4535
rradius 27.5382
rwrist -8.6543
rhand -17.447 11.2285
rfingers 7.12502
rthumb 8.80403 -18.5678
lclavicle -6.5102e-015 1.90833e-014
lhumerus -30.0697 5.8217 85.899
lradius 27.138
lwrist 5.04297
lhand -11.6991 35.6312
lfingers 7.12502
lthumb 14.347 65.1155
rfemur -12.4324 4.10757 25.143
rtibia 20.3879
rfoot -11.0284 -6.03541
rtoes 0.452277
lfemur -11.7796 4.12192 -14.3692
ltibia 24.0891
lfoot -16.0575 8.75183
ltoes -6.81704
66
root 0.400278 18.1948 -6.93158 11.2674 -8.08259 -7.71398
lowerback -8.81185 -0.328777 -0.45683
upperback -1.83498 -0.566867 4.59378
thorax 3.08913 -0.305168 4.98113
lowerneck -15.924 2.7593 2.84929
upperneck 40.0192 6.37767 -7.55006
head 17.9602 1.91997 -2.79435
rclavicle -1.52319e-014 -4.65156e-014
rhumerus -32.8284 -7.85325 -79.5037
rradius 27.6491
rwrist -8.55534
rhand -17.4419 11.2194
rfingers 7.12502
rthumb 8.8089 -18.5768
lclavicle -1.52319e-014 -4.65156e-014
lhumerus -30.2045 5.70898 85.8857
lradius 27.3201
lwrist 5.07068
lhand -11.8957 35.5165
lfingers 7.12502
lthumb 14.1575 65.0141
rfemur -12.4489 4.09322 25.1014
rtibia 20.4105
rfoot -11.0477 -6.05258
rtoes 0.275561
lfemur -11.8079 4.03528 -14.3934
ltibia 24.1156
lfoot -16.0893 8.74626
ltoes -7.8436
67
root 0.410122 18.1938 -6.93857 11.2814 -8.01344 -7.759
lowerback -8.56587 -0.31873 -0.351225
upperback -1.92521 -0.553101 4.55986
thorax 2.85609 -0.293196 4.88453
lowerneck -15.4148 2.81615 3.31782
upperneck 39.8322 6.50292 -8.06682
head 17.7804 1.98739 -3.09182
rclavicle -3.27498e-014 1.45113e-014
rhumerus -33.082 -7.71107 -79.6042
rradius 27.7545
rwrist -8.37849
rhand -17.5317 11.0828
rfingers 7.12502
rthumb 8.72231 -18.717
lclavicle -3.27498e-014 1.45113e-014
lhumerus -30.117 5.33897 85.9724
lradius 27.2243
lwrist 5.57646
lhand -12.1754 35.2923
lfingers 7.12502
lthumb 13.8879 64.8086
rfemur -12.5041 4.06636 25.1286
rtibia 20.4427
rfoot -11.0427 -6.10022
rtoes 0.349814
lfemur -11.8559 4.00717 -14.3565
ltibia 24.1294
lfoot -16.1545 8.65694
ltoes -7.32809
68
root 0.421074 18.1943 -6.94493 11.322 -7.94008 -7.79576
lowerback -8.45547 -0.312388 -0.245911
upperback -1.93951 -0.549619 4.52598
thorax 2.77834 -0.289458 4.78831
lowerneck -16.0159 2.88292 2.50197
upperneck 40.6857 6.6037 -7.17476
head 18.3638 1.99605 -2.5405
rclavicle -8.02593e-015 -1.45113e-014
rhumerus -33.1156 -7.58837 -79.706
rradius 27.7598
rwrist -8.22669
rhand -17.4821 11.0225
rfingers 7.12502
rthumb 8.77009 -18.7753
lclavicle -8.02593e-015 -1.45113e-014
lhumerus -30.0603 5.2212 85.9745
lradius 27.3009
lwrist 5.82287
lhand -12.1987 35.0581
lfingers 7.12502
lthumb 13.8655 64.5759
rfemur -12.5884 4.05203 25.1462
rtibia 20.479
rfoot -11.0147 -6.21209
rtoes -0.10608
lfemur -11.9445 3.94058 -14.3385
ltibia 24.1292
lfoot -16.1726 8.66636
ltoes -7.3788
69
root 0.43217 18.1927 -6.95155 11.2769 -7.82855 -7.8351
lowerback -8.42421 -0.302005 -0.171204
upperback -1.83876 -0.544135 4.49863
thorax 2.8642 -0.288143 4.71779
lowerneck -15.6736 2.88367 2.82313
upperneck 40.3918 6.61974 -7.54436
head 18.1352 2.01549 -2.75944
rclavicle -1.56916e-014 -2.78299e-014
rhumerus -33.026 -7.49138 -79.8084
rradius 27.7595
rwrist -8.26801
rhand -17.4673 10.9679
rfingers 7.12502
rthumb 8.78446 -18.8293
lclavicle -1.56916e-014 -2.78299e-014
lhumerus -29.9352 5.16987 85.9782
lradius 27.4087
lwrist 5.92733
lhand -12.2352 34.9284
lfingers 7.12502
lthumb 13.8303 64.4486
rfemur -12.5605 4.04147 25.1771
rtibia 20.4945
rfoot -11.0222 -6.39401
rtoes -0.75076
lfemur -11.9097 3.74699 -14.2843
ltibia 24.1364
lfoot -16.2794 8.40925
ltoes -4.93915
70
root 0.441579 18.1903 -6.95841 11.1877 -7.72709 -7.84974
lowerback -8.4145 -0.28873 -0.220409
upperback -1.69971 -0.527323 4.51356
thorax 3.00236 -0.283283 4.76432
lowerneck -15.8295 2.93626 2.75843
upperneck 40.6232 6.73395 -7.50252
head 18.3221 2.05097 -2.71607
rclavicle -2.22887e-014 -3.16068e-014
rhumerus -32.9755 -7.33091 -79.8656
rradius 27.8441
rwrist -8.4364
rhand -17.5189 10.9415
rfingers 7.12502
rthumb 8.73459 -18.8578
lclavicle -2.22887e-014 -3.16068e-014
lhumerus -29.7841 5.01547 86.0998
lradius 27.5443
lwrist 6.14402
lhand -12.3854 35.0514
lfingers 7.12502
lthumb 13.6856 64.5814
rfemur -12.4776 4.01456 25.1832
rtibia 20.4964
rfoot -11.0006 -6.51822
rtoes -0.967446
lfemur -11.8276 3.58717 -14.2448
ltibia 24.1409
lfoot -16.4315 8.02798
ltoes -1.72849
71
root 0.451794 18.1912 -6.965 11.1346 -7.60087 -7.83626
lowerback -8.41912 -0.278421 -0.308268
upperback -1.57099 -0.511415 4.54138
thorax 3.13832 -0.279333 4.84664
lowerneck -15.9499 2.96149 2.62399
upperneck 40.7753 6.80848 -7.4254
head 18.4433 2.06623 -2.64639
rclavicle -2.0773e-014 1.80894e-014
rhumerus -32.9024 -7.34078 -79.7841
rradius 27.8944
rwrist -8.19589
rhand -17.3946 10.9415
rfingers 7.12502
rthumb 8.85461 -18.8527
lclavicle -2.0773e-014 1.80894e-014
lhumerus -29.6324 4.82118 86.2704
lradius 27.7245
lwrist 6.36847
lhand -12.4647 35.2359
lfingers 7.12502
lthumb 13.6091 64.7711
rfemur -12.4478 3.93111 25.153
rtibia 20.5048
rfoot -10.9872 -6.52605
rtoes -0.826501
lfemur -11.8406 3.53152 -14.2615
ltibia 24.1355
lfoot -16.4093 7.88913
ltoes -1.14001
72
root 0.465568 18.1925 -6.97408 11.1644 -7.43881 -7.84584
lowerback -8.37081 -0.237485 -0.233872
upperback -1.52449 -0.461592 4.48463
thorax 3.15433 -0.254013 4.74973
lowerneck -15.8891 2.91448 2.64811
upperneck 40.7853 6.72538 -7.4175
head 18.4249 2.04035 -2.66413
rclavicle -3.31101e-014 1.43125e-014
rhumerus -32.8676 -7.6821 -79.6767
rradius 27.7904
rwrist -7.60533
rhand -17.1039 11.0639
rfingers 7.12502
rthumb 9.13511 -18.7182
lclavicle -3.31101e-014 1.43125e-014
lhumerus -29.5022 4.5474 86.334
lradius 27.8405
lwrist 6.48184
lhand -12.4824 35.3493
lfingers 7.12502
lthumb 13.5921 64.8856
rfemur -12.533 3.86183 25.1324
rtibia 20.5231
rfoot -10.9931 -6.56967
rtoes -0.65132
lfemur -11.9585 3.47671 -14.2746
ltibia 24.136
lfoot -16.3382 7.79545
ltoes -0.827603
